<?xml version="1.0" encoding="UTF-8" standalone="no" ?>
<!DOCTYPE svg PUBLIC "-//W3C//DTD SVG 1.1//EN" "http://www.w3.org/Graphics/SVG/1.1/DTD/svg11.dtd">
<svg xmlns="http://www.w3.org/2000/svg" xmlns:xlink="http://www.w3.org/1999/xlink" version="1.1" width="640" height="275" viewBox="0 0 640 275" xml:space="preserve">
<desc>Created with Fabric.js 3.6.3</desc>
<defs>
</defs>
<g transform="matrix(1.52 0 0 1.52 69.42 123.57)"  >
<linearGradient id="SVGID_27" gradientUnits="userSpaceOnUse" gradientTransform="matrix(1 0 0 1 0 0)"  x1="52.63" y1="-2.89" x2="27.53" y2="124.66">
<stop offset="0%" style="stop-color:rgb(76,76,229);stop-opacity: 1"/>
<stop offset="8%" style="stop-color:rgb(74,73,223);stop-opacity: 1"/>
<stop offset="69%" style="stop-color:rgb(60,55,180);stop-opacity: 1"/>
<stop offset="100%" style="stop-color:rgb(55,48,163);stop-opacity: 1"/>
</linearGradient>
<path style="stroke: none; stroke-width: 1; stroke-dasharray: none; stroke-linecap: butt; stroke-dashoffset: 0; stroke-linejoin: miter; stroke-miterlimit: 4; fill: url(#SVGID_27); fill-rule: nonzero; opacity: 1;"  transform=" translate(-45.5, -81.11)" d="M 91 3.47 A 69.57 69.57 0 0 0 43 69.07 a 4.87 4.87 0 0 0 0 0.54 v 59.31 a 42.85 42.85 0 0 0 -30.41 12.59 C 4.82 149.3 0 150.37 0 162.26 V 70.39 C 0 32.79 29.51 1.24 67.09 0 A 69.33 69.33 0 0 1 91 3.47 Z" stroke-linecap="round" />
</g>
<g transform="matrix(1.52 0 0 1.52 105.65 140.92)"  >
<linearGradient id="SVGID_28" gradientUnits="userSpaceOnUse" gradientTransform="matrix(1 0 0 1 0 0)"  x1="70.4" y1="135.54" x2="62.03" y2="43.54">
<stop offset="0%" style="stop-color:rgb(76,76,229);stop-opacity: 1"/>
<stop offset="8%" style="stop-color:rgb(74,73,223);stop-opacity: 1"/>
<stop offset="69%" style="stop-color:rgb(60,55,180);stop-opacity: 1"/>
<stop offset="100%" style="stop-color:rgb(55,48,163);stop-opacity: 1"/>
</linearGradient>
<path style="stroke: none; stroke-width: 1; stroke-dasharray: none; stroke-linecap: butt; stroke-dashoffset: 0; stroke-linejoin: miter; stroke-miterlimit: 4; fill: url(#SVGID_28); fill-rule: nonzero; opacity: 1;"  transform=" translate(-69.34, -92.53)" d="M 138.67 69.34 a 69.33 69.33 0 0 1 -69.33 69.34 H 43 v -0.09 a 43.05 43.05 0 0 0 -43 43 v -43 a 43 43 0 0 1 43 -43 v 0.08 H 69.34 A 26.31 26.31 0 1 0 43 69.08 A 69.57 69.57 0 0 1 91 3.46 A 69.45 69.45 0 0 1 138.67 69.34 Z" stroke-linecap="round" />
</g>
<g transform="matrix(1.71 0 0 1.85 236.18 223.26)"  >
<path style="stroke: none; stroke-width: 1; stroke-dasharray: none; stroke-linecap: butt; stroke-dashoffset: 0; stroke-linejoin: miter; stroke-miterlimit: 4; fill: rgb(77,77,77); fill-rule: nonzero; opacity: 1;"  transform=" translate(-201.56, -50.16)" d="M 214.27 25 a 19 19 0 0 1 8.34 7 a 19.17 19.17 0 0 1 2.92 10.67 a 19.19 19.19 0 0 1 -2.92 10.62 a 18.57 18.57 0 0 1 -8.34 6.95 a 31.06 31.06 0 0 1 -12.75 2.41 H 190.38 V 77.81 h -12.8 V 22.51 h 23.94 A 30.72 30.72 0 0 1 214.27 25 Z m -4.7 24.69 a 8.68 8.68 0 0 0 3 -7.07 a 8.76 8.76 0 0 0 -3 -7.15 q -3 -2.49 -8.77 -2.49 H 190.38 v 19.2 H 200.8 Q 206.58 52.14 209.57 49.65 Z" stroke-linecap="round" />
</g>
<g transform="matrix(1.71 0 0 1.85 339.72 223.27)"  >
<path style="stroke: none; stroke-width: 1; stroke-dasharray: none; stroke-linecap: butt; stroke-dashoffset: 0; stroke-linejoin: miter; stroke-miterlimit: 4; fill: rgb(77,77,77); fill-rule: nonzero; opacity: 1;"  transform=" translate(-261.95, -50.16)" d="M 283.36 67.54 V 77.81 H 240.54 V 22.51 h 41.79 V 32.78 H 253.26 v 12 h 25.67 v 10 H 253.26 v 12.8 Z" stroke-linecap="round" />
</g>
<g transform="matrix(1.71 0 0 1.85 446 223.26)"  >
<path style="stroke: none; stroke-width: 1; stroke-dasharray: none; stroke-linecap: butt; stroke-dashoffset: 0; stroke-linejoin: miter; stroke-miterlimit: 4; fill: rgb(77,77,77); fill-rule: nonzero; opacity: 1;"  transform=" translate(-323.96, -50.16)" d="M 334.7 77.81 L 324 62.41 H 312.27 v 15.4 h -12.8 V 22.51 h 23.94 A 30.72 30.72 0 0 1 336.16 25 a 19 19 0 0 1 8.34 7 a 19.17 19.17 0 0 1 2.92 10.67 A 18 18 0 0 1 336.05 60 l 12.4 17.77 Z m -3.24 -42.38 q -3 -2.49 -8.77 -2.49 H 312.27 V 52.22 h 10.42 c 3.85 0 6.77 -0.85 8.77 -2.53 a 8.81 8.81 0 0 0 3 -7.11 A 8.77 8.77 0 0 0 331.46 35.43 Z" stroke-linecap="round" />
</g>
<g transform="matrix(1.71 0 0 1.85 554.38 223.35)"  >
<path style="stroke: none; stroke-width: 1; stroke-dasharray: none; stroke-linecap: butt; stroke-dashoffset: 0; stroke-linejoin: miter; stroke-miterlimit: 4; fill: rgb(77,77,77); fill-rule: nonzero; opacity: 1;"  transform=" translate(-387.19, -50.2)" d="M 399.87 66 H 374.2 l -4.9 11.85 H 356.19 l 24.65 -55.3 h 12.64 l 24.72 55.3 H 404.77 Z m -4 -9.72 l -8.77 -21.17 l -8.77 21.17 Z" stroke-linecap="round" />
</g>
</svg>