<?xml version="1.0" encoding="UTF-8" standalone="no" ?>
<!DOCTYPE svg PUBLIC "-//W3C//DTD SVG 1.1//EN" "http://www.w3.org/Graphics/SVG/1.1/DTD/svg11.dtd">
<svg xmlns="http://www.w3.org/2000/svg" xmlns:xlink="http://www.w3.org/1999/xlink" version="1.1" width="210" height="275" viewBox="0 0 210 275" xml:space="preserve">
<desc>Created with Fabric.js 3.6.3</desc>
<defs>
</defs>
<g transform="matrix(1 0 0 1 105.15 142.79)"  >
<g style=""   >
		<g transform="matrix(1.52 0 0 1.52 -36.23 -14.69)"  >
<linearGradient id="SVGID_29" gradientUnits="userSpaceOnUse" gradientTransform="matrix(1 0 0 1 0 0)"  x1="52.63" y1="-2.89" x2="27.53" y2="124.66">
<stop offset="0%" style="stop-color:rgb(76,76,229);stop-opacity: 1"/>
<stop offset="8%" style="stop-color:rgb(74,73,223);stop-opacity: 1"/>
<stop offset="69%" style="stop-color:rgb(60,55,180);stop-opacity: 1"/>
<stop offset="100%" style="stop-color:rgb(55,48,163);stop-opacity: 1"/>
</linearGradient>
<path style="stroke: none; stroke-width: 1; stroke-dasharray: none; stroke-linecap: butt; stroke-dashoffset: 0; stroke-linejoin: miter; stroke-miterlimit: 4; fill: url(#SVGID_29); fillRule: nonzero; opacity: 1;"  transform=" translate(-45.5, -81.11)" d="M 91 3.47 A 69.57 69.57 0 0 0 43 69.07 a 4.87 4.87 0 0 0 0 0.54 v 59.31 a 42.85 42.85 0 0 0 -30.41 12.59 C 4.82 149.3 0 150.37 0 162.26 V 70.39 C 0 32.79 29.51 1.24 67.09 0 A 69.33 69.33 0 0 1 91 3.47 Z" stroke-linecap="round" />
</g>
		<g transform="matrix(1.52 0 0 1.52 0 2.66)"  >
<linearGradient id="SVGID_30" gradientUnits="userSpaceOnUse" gradientTransform="matrix(1 0 0 1 0 0)"  x1="70.4" y1="135.54" x2="62.03" y2="43.54">
<stop offset="0%" style="stop-color:rgb(76,76,229);stop-opacity: 1"/>
<stop offset="8%" style="stop-color:rgb(74,73,223);stop-opacity: 1"/>
<stop offset="69%" style="stop-color:rgb(60,55,180);stop-opacity: 1"/>
<stop offset="100%" style="stop-color:rgb(55,48,163);stop-opacity: 1"/>
</linearGradient>
<path style="stroke: none; stroke-width: 1; stroke-dasharray: none; stroke-linecap: butt; stroke-dashoffset: 0; stroke-linejoin: miter; stroke-miterlimit: 4; fill: url(#SVGID_30); fillRule: nonzero; opacity: 1;"  transform=" translate(-69.34, -92.53)" d="M 138.67 69.34 a 69.33 69.33 0 0 1 -69.33 69.34 H 43 v -0.09 a 43.05 43.05 0 0 0 -43 43 v -43 a 43 43 0 0 1 43 -43 v 0.08 H 69.34 A 26.31 26.31 0 1 0 43 69.08 A 69.57 69.57 0 0 1 91 3.46 A 69.45 69.45 0 0 1 138.67 69.34 Z" stroke-linecap="round" />
</g>
</g>
</g>
</svg>